<svg xmlns="http://www.w3.org/2000/svg" xmlns:xlink="http://www.w3.org/1999/xlink" width="150" zoomAndPan="magnify" viewBox="0 0 112.5 30.000001" height="40" preserveAspectRatio="xMidYMid meet" version="1.0"><defs><g/><clipPath id="eb18204241"><path d="M 99 5 L 107.804688 5 L 107.804688 14 L 99 14 Z M 99 5 " clip-rule="nonzero"/></clipPath><clipPath id="b1f0cdebdf"><rect x="0" width="108" y="0" height="17"/></clipPath></defs><g transform="matrix(1, 0, 0, 1, 2, 6)"><g clip-path="url(#b1f0cdebdf)"><g fill="#8c52ff" fill-opacity="1"><g transform="translate(0.452989, 12.993044)"><g><path d="M 5.15625 -9.53125 C 8.488281 -9.53125 10.15625 -7.941406 10.15625 -4.765625 C 10.15625 -1.585938 8.488281 0 5.15625 0 L 1.03125 0 L 1.03125 -9.53125 Z M 4.09375 -2.28125 L 5.09375 -2.28125 C 6.382812 -2.28125 7.03125 -2.972656 7.03125 -4.359375 L 7.03125 -5.1875 C 7.03125 -6.5625 6.382812 -7.25 5.09375 -7.25 L 4.09375 -7.25 Z M 4.09375 -2.28125 "/></g></g></g><g fill="#8c52ff" fill-opacity="1"><g transform="translate(11.228644, 12.993044)"><g><path d="M 4.453125 -7.484375 C 5.566406 -7.484375 6.472656 -7.296875 7.171875 -6.921875 C 7.878906 -6.546875 8.234375 -5.9375 8.234375 -5.09375 L 8.234375 -2.25 C 8.234375 -2.09375 8.269531 -1.960938 8.34375 -1.859375 C 8.414062 -1.753906 8.523438 -1.703125 8.671875 -1.703125 L 9.171875 -1.703125 L 9.171875 -0.109375 C 9.148438 -0.0859375 9.078125 -0.0546875 8.953125 -0.015625 C 8.835938 0.0234375 8.675781 0.0664062 8.46875 0.109375 C 8.257812 0.148438 8.015625 0.171875 7.734375 0.171875 C 7.191406 0.171875 6.75 0.09375 6.40625 -0.0625 C 6.0625 -0.226562 5.828125 -0.457031 5.703125 -0.75 C 5.347656 -0.46875 4.953125 -0.242188 4.515625 -0.078125 C 4.078125 0.0859375 3.570312 0.171875 3 0.171875 C 1.28125 0.171875 0.421875 -0.515625 0.421875 -1.890625 C 0.421875 -2.597656 0.609375 -3.140625 0.984375 -3.515625 C 1.367188 -3.890625 1.921875 -4.144531 2.640625 -4.28125 C 3.367188 -4.414062 4.3125 -4.484375 5.46875 -4.484375 L 5.46875 -4.84375 C 5.46875 -5.132812 5.367188 -5.351562 5.171875 -5.5 C 4.972656 -5.644531 4.71875 -5.71875 4.40625 -5.71875 C 4.125 -5.71875 3.878906 -5.664062 3.671875 -5.5625 C 3.460938 -5.46875 3.359375 -5.3125 3.359375 -5.09375 L 3.359375 -5.03125 L 0.640625 -5.03125 C 0.628906 -5.070312 0.625 -5.132812 0.625 -5.21875 C 0.625 -5.914062 0.953125 -6.46875 1.609375 -6.875 C 2.273438 -7.28125 3.222656 -7.484375 4.453125 -7.484375 Z M 5.46875 -3.1875 C 4.6875 -3.1875 4.109375 -3.097656 3.734375 -2.921875 C 3.359375 -2.753906 3.171875 -2.53125 3.171875 -2.25 C 3.171875 -1.78125 3.484375 -1.546875 4.109375 -1.546875 C 4.472656 -1.546875 4.789062 -1.644531 5.0625 -1.84375 C 5.332031 -2.039062 5.46875 -2.28125 5.46875 -2.5625 Z M 5.46875 -3.1875 "/></g></g></g><g fill="#8c52ff" fill-opacity="1"><g transform="translate(20.231423, 12.993044)"><g><path d="M 2.765625 0 L 0 -7.3125 L 2.96875 -7.3125 L 4.3125 -2.765625 L 4.40625 -2.765625 L 5.75 -7.3125 L 8.46875 -7.3125 L 5.671875 0 Z M 2.765625 0 "/></g></g></g><g fill="#8c52ff" fill-opacity="1"><g transform="translate(28.694052, 12.993044)"><g><path d="M 0.921875 -8.171875 L 0.921875 -10.046875 L 3.6875 -10.046875 L 3.6875 -8.171875 Z M 0.921875 0 L 0.921875 -7.3125 L 3.6875 -7.3125 L 3.6875 0 Z M 0.921875 0 "/></g></g></g><g fill="#8c52ff" fill-opacity="1"><g transform="translate(33.306256, 12.993044)"><g><path d="M 6.15625 0 L 5.921875 -1.046875 C 5.378906 -0.234375 4.601562 0.171875 3.59375 0.171875 C 2.601562 0.171875 1.835938 -0.148438 1.296875 -0.796875 C 0.765625 -1.453125 0.5 -2.410156 0.5 -3.671875 C 0.5 -4.929688 0.765625 -5.878906 1.296875 -6.515625 C 1.835938 -7.160156 2.601562 -7.484375 3.59375 -7.484375 C 4.425781 -7.484375 5.109375 -7.203125 5.640625 -6.640625 L 5.640625 -10.046875 L 8.40625 -10.046875 L 8.40625 0 Z M 4.453125 -5.453125 C 3.648438 -5.453125 3.25 -4.972656 3.25 -4.015625 L 3.25 -3.28125 C 3.25 -2.34375 3.648438 -1.875 4.453125 -1.875 C 4.859375 -1.875 5.160156 -2.015625 5.359375 -2.296875 C 5.566406 -2.585938 5.671875 -2.960938 5.671875 -3.421875 L 5.671875 -3.875 C 5.671875 -4.34375 5.566406 -4.722656 5.359375 -5.015625 C 5.160156 -5.304688 4.859375 -5.453125 4.453125 -5.453125 Z M 4.453125 -5.453125 "/></g></g></g><g fill="#8c52ff" fill-opacity="1"><g transform="translate(42.544512, 12.993044)"><g/></g></g><g fill="#8c52ff" fill-opacity="1"><g transform="translate(47.156715, 12.993044)"><g><path d="M 6.515625 -7.09375 L 6.515625 0 L 3.453125 0 L 3.453125 -7.09375 L 0.3125 -7.09375 L 0.3125 -9.53125 L 9.625 -9.53125 L 9.625 -7.09375 Z M 6.515625 -7.09375 "/></g></g></g><g fill="#8c52ff" fill-opacity="1"><g transform="translate(57.530735, 12.993044)"><g><path d="M 3.59375 -6.5625 C 3.882812 -6.851562 4.226562 -7.078125 4.625 -7.234375 C 5.019531 -7.398438 5.4375 -7.484375 5.875 -7.484375 C 6.726562 -7.484375 7.363281 -7.25 7.78125 -6.78125 C 8.207031 -6.3125 8.421875 -5.628906 8.421875 -4.734375 L 8.421875 0 L 5.671875 0 L 5.671875 -4.40625 C 5.671875 -4.71875 5.585938 -4.96875 5.421875 -5.15625 C 5.265625 -5.351562 5.035156 -5.453125 4.734375 -5.453125 C 4.398438 -5.453125 4.125 -5.335938 3.90625 -5.109375 C 3.695312 -4.890625 3.59375 -4.617188 3.59375 -4.296875 L 3.59375 0 L 0.828125 0 L 0.828125 -10.046875 L 3.59375 -10.046875 Z M 3.59375 -6.5625 "/></g></g></g><g fill="#8c52ff" fill-opacity="1"><g transform="translate(66.768991, 12.993044)"><g><path d="M 4.609375 -7.484375 C 5.898438 -7.484375 6.910156 -7.15625 7.640625 -6.5 C 8.378906 -5.851562 8.75 -4.90625 8.75 -3.65625 C 8.75 -2.40625 8.378906 -1.453125 7.640625 -0.796875 C 6.910156 -0.148438 5.898438 0.171875 4.609375 0.171875 C 3.328125 0.171875 2.320312 -0.148438 1.59375 -0.796875 C 0.863281 -1.453125 0.5 -2.40625 0.5 -3.65625 C 0.5 -4.914062 0.863281 -5.867188 1.59375 -6.515625 C 2.320312 -7.160156 3.328125 -7.484375 4.609375 -7.484375 Z M 4.609375 -5.609375 C 3.703125 -5.609375 3.25 -5.085938 3.25 -4.046875 L 3.25 -3.25 C 3.25 -2.21875 3.703125 -1.703125 4.609375 -1.703125 C 5.523438 -1.703125 5.984375 -2.21875 5.984375 -3.25 L 5.984375 -4.046875 C 5.984375 -5.085938 5.523438 -5.609375 4.609375 -5.609375 Z M 4.609375 -5.609375 "/></g></g></g><g fill="#8c52ff" fill-opacity="1"><g transform="translate(76.007247, 12.993044)"><g><path d="M 10.546875 -7.484375 C 11.378906 -7.484375 12.003906 -7.242188 12.421875 -6.765625 C 12.835938 -6.296875 13.046875 -5.617188 13.046875 -4.734375 L 13.046875 0 L 10.28125 0 L 10.28125 -4.40625 C 10.28125 -4.71875 10.203125 -4.96875 10.046875 -5.15625 C 9.898438 -5.351562 9.6875 -5.453125 9.40625 -5.453125 C 9.082031 -5.453125 8.816406 -5.335938 8.609375 -5.109375 C 8.410156 -4.890625 8.3125 -4.617188 8.3125 -4.296875 L 8.3125 0 L 5.5625 0 L 5.5625 -4.40625 C 5.5625 -4.71875 5.484375 -4.96875 5.328125 -5.15625 C 5.171875 -5.351562 4.957031 -5.453125 4.6875 -5.453125 C 4.363281 -5.453125 4.097656 -5.335938 3.890625 -5.109375 C 3.691406 -4.890625 3.59375 -4.617188 3.59375 -4.296875 L 3.59375 0 L 0.828125 0 L 0.828125 -7.3125 L 3.09375 -7.3125 L 3.265625 -6.21875 C 3.546875 -6.613281 3.914062 -6.921875 4.375 -7.140625 C 4.832031 -7.367188 5.316406 -7.484375 5.828125 -7.484375 C 6.921875 -7.484375 7.65625 -7.0625 8.03125 -6.21875 C 8.320312 -6.613281 8.691406 -6.921875 9.140625 -7.140625 C 9.585938 -7.367188 10.054688 -7.484375 10.546875 -7.484375 Z M 10.546875 -7.484375 "/></g></g></g><g fill="#8c52ff" fill-opacity="1"><g transform="translate(89.857706, 12.993044)"><g><path d="M 4.453125 -7.484375 C 5.566406 -7.484375 6.472656 -7.296875 7.171875 -6.921875 C 7.878906 -6.546875 8.234375 -5.9375 8.234375 -5.09375 L 8.234375 -2.25 C 8.234375 -2.09375 8.269531 -1.960938 8.34375 -1.859375 C 8.414062 -1.753906 8.523438 -1.703125 8.671875 -1.703125 L 9.171875 -1.703125 L 9.171875 -0.109375 C 9.148438 -0.0859375 9.078125 -0.0546875 8.953125 -0.015625 C 8.835938 0.0234375 8.675781 0.0664062 8.46875 0.109375 C 8.257812 0.148438 8.015625 0.171875 7.734375 0.171875 C 7.191406 0.171875 6.75 0.09375 6.40625 -0.0625 C 6.0625 -0.226562 5.828125 -0.457031 5.703125 -0.75 C 5.347656 -0.46875 4.953125 -0.242188 4.515625 -0.078125 C 4.078125 0.0859375 3.570312 0.171875 3 0.171875 C 1.28125 0.171875 0.421875 -0.515625 0.421875 -1.890625 C 0.421875 -2.597656 0.609375 -3.140625 0.984375 -3.515625 C 1.367188 -3.890625 1.921875 -4.144531 2.640625 -4.28125 C 3.367188 -4.414062 4.3125 -4.484375 5.46875 -4.484375 L 5.46875 -4.84375 C 5.46875 -5.132812 5.367188 -5.351562 5.171875 -5.5 C 4.972656 -5.644531 4.71875 -5.71875 4.40625 -5.71875 C 4.125 -5.71875 3.878906 -5.664062 3.671875 -5.5625 C 3.460938 -5.46875 3.359375 -5.3125 3.359375 -5.09375 L 3.359375 -5.03125 L 0.640625 -5.03125 C 0.628906 -5.070312 0.625 -5.132812 0.625 -5.21875 C 0.625 -5.914062 0.953125 -6.46875 1.609375 -6.875 C 2.273438 -7.28125 3.222656 -7.484375 4.453125 -7.484375 Z M 5.46875 -3.1875 C 4.6875 -3.1875 4.109375 -3.097656 3.734375 -2.921875 C 3.359375 -2.753906 3.171875 -2.53125 3.171875 -2.25 C 3.171875 -1.78125 3.484375 -1.546875 4.109375 -1.546875 C 4.472656 -1.546875 4.789062 -1.644531 5.0625 -1.84375 C 5.332031 -2.039062 5.46875 -2.28125 5.46875 -2.5625 Z M 5.46875 -3.1875 "/></g></g></g><g clip-path="url(#eb18204241)"><g fill="#8c52ff" fill-opacity="1"><g transform="translate(99.095958, 12.993044)"><g><path d="M 4.3125 -7.484375 C 5.289062 -7.484375 6.117188 -7.289062 6.796875 -6.90625 C 7.472656 -6.519531 7.8125 -5.925781 7.8125 -5.125 L 5.25 -5.125 C 5.25 -5.394531 5.128906 -5.585938 4.890625 -5.703125 C 4.722656 -5.785156 4.515625 -5.828125 4.265625 -5.828125 C 3.597656 -5.828125 3.265625 -5.671875 3.265625 -5.359375 C 3.265625 -5.179688 3.378906 -5.054688 3.609375 -4.984375 C 3.847656 -4.910156 4.226562 -4.832031 4.75 -4.75 C 5.394531 -4.65625 5.9375 -4.546875 6.375 -4.421875 C 6.8125 -4.296875 7.191406 -4.070312 7.515625 -3.75 C 7.835938 -3.4375 8 -2.992188 8 -2.421875 C 8 -1.492188 7.648438 -0.828125 6.953125 -0.421875 C 6.253906 -0.0234375 5.34375 0.171875 4.21875 0.171875 C 3.570312 0.171875 2.960938 0.0820312 2.390625 -0.09375 C 1.816406 -0.28125 1.347656 -0.5625 0.984375 -0.9375 C 0.617188 -1.320312 0.4375 -1.804688 0.4375 -2.390625 L 3 -2.390625 L 3 -2.328125 C 3.007812 -2.015625 3.140625 -1.796875 3.390625 -1.671875 C 3.648438 -1.546875 3.925781 -1.484375 4.21875 -1.484375 C 4.976562 -1.484375 5.359375 -1.664062 5.359375 -2.03125 C 5.359375 -2.207031 5.238281 -2.335938 5 -2.421875 C 4.757812 -2.503906 4.367188 -2.59375 3.828125 -2.6875 C 3.171875 -2.800781 2.628906 -2.921875 2.203125 -3.046875 C 1.785156 -3.179688 1.421875 -3.398438 1.109375 -3.703125 C 0.796875 -4.015625 0.640625 -4.445312 0.640625 -5 C 0.640625 -5.894531 0.976562 -6.53125 1.65625 -6.90625 C 2.332031 -7.289062 3.21875 -7.484375 4.3125 -7.484375 Z M 4.3125 -7.484375 "/></g></g></g></g></g></g></svg>